<svg width="109" height="97" viewBox="0 0 109 97" fill="none" xmlns="http://www.w3.org/2000/svg">
<path d="M101.405 64.5121C100.637 61.7149 99.5771 49.2302 91.6259 5.73243C87.182 -0.615991 22.4281 2.55822 17.3493 3.8279C12.2706 5.09759 11.6358 62.8682 17.3493 67.3121C22.6142 71.407 92.0247 64.1821 101.405 64.5121C101.679 65.5115 101.917 65.2741 102.418 64.7728C102.568 64.6232 102.204 64.5402 101.405 64.5121Z" fill="white"/>
<path d="M91.6259 5.73243C102.418 64.7728 100.514 66.6773 102.418 64.7728C104.323 62.8682 23.0629 71.756 17.3494 67.3121C11.6358 62.8682 12.2706 5.09759 17.3494 3.8279C22.4281 2.55822 87.182 -0.615991 91.6259 5.73243Z" stroke="black" stroke-width="3.80905"/>
<path d="M105.592 88.8969C109.655 88.8969 103.899 73.2375 100.514 65.4077C91.6258 67.3123 22.428 69.8516 16.7144 69.2168C16.7144 62.0219 16.2065 46.3625 14.175 41.2837C12.1435 36.205 13.3286 18.4294 14.175 10.1765L16.7144 4.46289C13.9634 6.79065 7.8266 11.8271 5.28723 13.3507C2.11302 15.2552 2.74786 19.0643 2.74786 22.8733C2.74786 26.6824 0.843338 46.3625 2.74786 61.5987C4.27148 73.7877 7.19176 87.8388 8.46144 93.3408C7.19176 97.7847 100.514 88.8969 105.592 88.8969Z" fill="#D9D9D9"/>
<path d="M8.46144 93.3408C7.19176 97.7847 100.514 88.8969 105.592 88.8969C109.655 88.8969 103.899 73.2375 100.514 65.4077C91.6258 67.3123 22.428 69.8516 16.7144 69.2168M8.46144 93.3408C9.73113 88.8969 11.0008 68.582 16.7144 69.2168M8.46144 93.3408C7.19176 87.8388 4.27148 73.7877 2.74786 61.5987C0.843335 46.3625 2.74786 26.6824 2.74786 22.8733C2.74786 19.0643 2.11302 15.2552 5.28723 13.3507C7.8266 11.8271 13.9634 6.79065 16.7144 4.46289L14.175 10.1765C13.3286 18.4294 12.1435 36.205 14.175 41.2837C16.2065 46.3625 16.7144 62.0219 16.7144 69.2168" stroke="black" stroke-width="3.80905"/>
<path d="M75.544 32.3767C71.6308 31.5487 55.3691 35.0762 47.6109 34.2813C39.8527 33.4863 36.1177 33.0944 32.3747 33.4256M75.544 32.3767C76.8137 36.8206 62.9992 42.3686 57.8951 46.3433M75.544 32.3767C73.6725 28.4021 67.3387 25.3162 62.8471 24.1238" stroke="black" stroke-width="3.80905" stroke-linecap="round"/>
</svg>
