<svg width="98" height="97" viewBox="0 0 98 97" fill="none" xmlns="http://www.w3.org/2000/svg">
<path d="M93.3536 64.5399C91.0068 60.7884 85.1858 23.4464 82.8288 6.35796C78.3849 0.00953448 20.6678 1.93313 15.589 3.20282C10.5103 4.4725 5.64314 61.6274 11.3567 66.0713C16.7315 70.2517 86.6646 63.7413 93.3536 64.5399C93.5352 64.8301 93.6959 64.9193 93.8327 64.7826C93.9456 64.6696 93.7753 64.5902 93.3536 64.5399Z" fill="white"/>
<path d="M82.8288 6.35796C85.3682 24.7684 91.9282 66.6871 93.8327 64.7826C95.7372 62.878 17.0703 70.5152 11.3567 66.0713C5.64313 61.6274 10.5103 4.4725 15.589 3.20282C20.6678 1.93313 78.3849 0.00953447 82.8288 6.35796Z" stroke="black" stroke-width="3.80905"/>
<path d="M93.6214 93.3315C97.6844 93.3315 95.1028 71.9585 91.7169 64.1287C82.8291 66.0333 16.4358 68.6108 10.7223 67.9759C10.7223 60.7811 13.8118 45.1026 11.7803 40.0238C9.76073 34.9748 16.567 11.4399 13.1121 5.56942C13.3774 5.30106 13.7549 4.9506 14.3197 4.47266L13.05 5.46757C13.0711 5.5009 13.0918 5.53486 13.1121 5.56942C12.0855 6.60808 12.7402 6.41698 10.7223 7.62776C7.54806 9.53229 5.80158 28.5776 5.37836 35.5608C5.14793 39.3629 2.46932 53.3364 2.46932 59.7039C2.46932 71.9878 1.19963 86.598 2.46932 92.1C1.19963 96.5439 88.5427 93.3315 93.6214 93.3315Z" fill="#D9D9D9"/>
<path d="M2.46932 92.1C1.19963 96.5439 88.5427 93.3315 93.6214 93.3315C97.6844 93.3315 95.1028 71.9584 91.7169 64.1287C82.8291 66.0333 16.4358 68.6108 10.7223 67.9759M2.46932 92.1C3.739 87.6561 5.00869 67.3411 10.7223 67.9759M2.46932 92.1C1.19963 86.598 2.46932 71.9878 2.46932 59.7039C2.46932 53.3364 5.14793 39.3629 5.37836 35.5608C5.80158 28.5776 7.54806 9.53229 10.7223 7.62777C13.2616 6.10414 11.5687 6.80041 14.3197 4.47266L13.05 5.46757C16.6474 11.1621 9.74884 34.9451 11.7803 40.0238C13.8118 45.1026 10.7223 60.7811 10.7223 67.9759" stroke="black" stroke-width="3.80905"/>
<path d="M50.5347 13.5117C49.7066 17.4248 49.9771 27.8025 49.1822 35.5607C48.3872 43.3189 48.851 52.1326 49.1822 55.8756M50.5347 13.5117C54.0125 8.918 52.8256 19.0295 56.8003 24.1335M50.5347 13.5117C46.56 15.3832 40.852 19.6419 39.6596 24.1335" stroke="black" stroke-width="3.80905" stroke-linecap="round"/>
</svg>
