<svg width="281" height="103" viewBox="0 0 281 103" fill="none" xmlns="http://www.w3.org/2000/svg">
<path d="M13.6141 78.2023C14.7549 75.2556 11.3856 25.2578 12.9497 8.85992C16.5247 2.8514 253.316 9.93151 257.636 10.9846C261.955 12.0377 262.334 73.2128 257.636 77.4836C253.032 81.6684 21.381 76.7808 13.6141 78.2023C13.5606 78.3405 13.4972 78.3752 13.4229 78.2981C13.3894 78.2634 13.4545 78.2315 13.6141 78.2023Z" fill="#FFEDC5"/>
<path d="M12.9497 8.85992C11.3122 26.027 15.0818 80.02 13.4229 78.298C11.7639 76.5761 252.937 81.7544 257.636 77.4836C262.334 73.2129 261.955 12.0377 257.636 10.9846C253.316 9.93151 16.5247 2.8514 12.9497 8.85992Z" stroke="black" stroke-width="3.21489"/>
<path d="M12.5714 88.1872C11.5257 87.3501 12.508 81.7524 13.4133 78.5645C14.2931 75.466 253.861 80.6478 258.664 79.9273C258.471 73.3748 258.319 78.4774 259.896 73.8015C261.474 69.1256 259.734 27.0888 258.798 19.5937L258.799 12.5909C261.182 14.6423 260.11 15.7943 261.48 17.9492C263.865 21.6999 263.762 23.8191 263.865 27.2881C263.967 30.7571 264.254 46.3315 264.615 60.2812C264.904 71.4573 262.771 85.7077 261.847 90.7501C263.038 94.7657 15.9177 90.8662 12.5714 88.1872Z" fill="#BEAF8E"/>
<path d="M261.847 90.7501C263.038 94.7657 15.9177 90.8662 12.5714 88.1872C11.5257 87.3501 12.508 81.7524 13.4133 78.5645C14.2931 75.466 253.861 80.6478 258.664 79.9273M261.847 90.7501C260.657 86.7346 263.467 79.2069 258.664 79.9273M261.847 90.7501C262.771 85.7077 264.904 71.4573 264.615 60.2812C264.254 46.3315 263.967 30.7571 263.865 27.2881C263.762 23.8191 263.865 21.6999 261.48 17.9492C260.11 15.7943 261.182 14.6423 258.799 12.5909L258.798 19.5937C259.734 27.0888 261.474 69.1256 259.896 73.8015C258.319 78.4774 258.471 73.3748 258.664 79.9273" stroke="black" stroke-width="3.21489"/>
<path d="M10.1796 86.6123C10.1797 88.1127 11.0727 87.2375 11.5192 86.6123C12.2335 83.6653 13.7158 77.0212 13.9301 74.0206C14.198 70.2699 13.1266 8.3833 11.5192 8.3833C10.2333 8.3833 10.0903 9.63354 10.1796 10.2587V86.6123Z" fill="#BEAF8E" stroke="black" stroke-width="1.60745"/>
<path d="M46.0479 61.4593C48.0854 56.7232 51.2517 49.3977 54.229 42.5799M76.1049 41.6225C73.7864 35.1342 71.35 27.3843 70.8674 24.8356C70.3848 22.2868 64.3363 20.4045 61.4655 26.3495C60.2877 28.7885 57.3631 35.4029 54.229 42.5799M76.1049 41.6225C78.4235 48.1108 81.1872 59.892 82.5147 61.53M76.1049 41.6225C74.263 42.5122 69.4425 44.1727 64.8956 43.6966C60.3487 43.2206 55.8899 42.7538 54.229 42.5799" stroke="black" stroke-width="3.80905" stroke-linecap="round"/>
<path d="M92.5529 57.7877C93.2316 54.2974 94.5667 46.5074 94.4772 43.2699C94.3858 39.9656 93.6102 31.2537 93.3528 27.0674M93.2714 25.0434C93.2633 25.4143 93.295 26.1266 93.3528 27.0674M93.3528 27.0674C98.5133 24.754 107.775 23.4268 112.531 25.4661C117.502 27.5975 119.412 32.0225 118.111 36.4429C116.809 40.8632 115.902 45.6175 108.479 45.4546C102.541 45.3243 96.3949 44.9696 94.4793 43.8491C102.295 44.425 114.915 44.8661 117.836 48.9747C120.902 53.2885 119.415 59.3227 113.749 61.4228C108.083 63.5229 106.117 61.6597 99.3177 60.4994C93.8786 59.5712 90.7107 62.4657 89.8339 62.7835" stroke="black" stroke-width="3.80905" stroke-linecap="round"/>
<path d="M130.168 35.1867C130.028 25.6875 139.137 23.945 143.709 24.2611L147.196 24.3376C149.375 24.3855 153.014 27.4868 155.52 32.5058C158.027 37.5247 155.855 45.5613 155.148 49.4776C153.907 56.3567 151.878 59.4037 148.357 60.8372C144.837 62.2707 140.654 64.1213 133.319 60.5072C125.985 56.8931 130.344 47.0609 130.168 35.1867Z" stroke="black" stroke-width="3.80905" stroke-linecap="round"/>
<path d="M169.99 24.9694C167.066 36.513 162.551 60.1247 167.892 62.2226C174.567 64.845 187.947 61.0561 188.645 61.0155C189.344 60.9749 192.625 36.5223 191.171 28.0025M191.171 28.0025C190.939 26.6441 191.803 26.6172 190.08 25.3062C188.358 23.9951 189.583 26.1714 191.171 28.0025ZM191.171 28.0025C191.171 28.0025 191.651 37.5896 191.12 43.1776C190.589 48.7657 188.711 57.8383 189.847 60.1116C190.983 62.3848 189.366 60.4718 192.233 62.3121" stroke="black" stroke-width="3.80905" stroke-linecap="round"/>
<path d="M201.324 23.3359C200.23 23.552 198.689 24.2865 201.277 25.4958C202.806 26.2101 208.038 26.8448 213.383 27.0932M226.713 26.054C225.457 27.1663 219.349 27.3705 213.383 27.0932M213.383 27.0932C210.055 61.705 209.355 61.6897 210.941 63.8855" stroke="black" stroke-width="3.80905" stroke-linecap="round"/>
</svg>
