<svg width="107" height="98" viewBox="0 0 107 98" fill="none" xmlns="http://www.w3.org/2000/svg">
<path d="M100.119 64.5651C98.3178 60.9298 96.3205 22.864 93.9564 5.72403C89.5125 -0.624389 20.5262 2.5689 15.4475 3.83858C10.3687 5.10827 9.73391 62.8789 15.4475 67.3228C20.8516 71.526 93.8388 63.8027 100.119 64.5651C100.252 64.8346 100.385 64.9149 100.516 64.7835C100.62 64.6803 100.479 64.6088 100.119 64.5651Z" fill="#FFEDC5"/>
<path d="M93.9564 5.72403C96.4957 24.1345 98.6118 66.688 100.516 64.7835C102.421 62.8789 21.1611 71.7667 15.4475 67.3228C9.73391 62.8789 10.3687 5.10827 15.4475 3.83858C20.5262 2.5689 89.5125 -0.624389 93.9564 5.72403Z" stroke="black" stroke-width="3.80905"/>
<path d="M102.844 94.6017C106.907 94.6017 103.056 74.4983 99.6699 66.6686C90.7821 68.5732 20.5262 69.8619 14.8126 69.2271C14.8126 62.0322 14.3047 46.3727 12.2732 41.294C10.2418 36.2153 11.4268 18.4397 12.2732 10.1867L14.8126 4.47314C12.0616 6.8009 10.1571 11.1834 7.61773 12.707C4.44352 14.6116 3.38546 15.8812 3.38546 19.6903C3.38546 23.4993 4.65514 45.7188 6.55967 60.955C8.08329 73.144 5.28999 87.8491 6.55967 93.3511C5.28999 97.795 97.7654 94.6017 102.844 94.6017Z" fill="#BEAF8E"/>
<path d="M6.55967 93.3511C5.28998 97.795 97.7654 94.6017 102.844 94.6017C106.907 94.6017 103.056 74.4983 99.6699 66.6686C90.7821 68.5732 20.5262 69.8619 14.8126 69.2271M6.55967 93.3511C7.82935 88.9072 9.09904 68.5922 14.8126 69.2271M6.55967 93.3511C5.28998 87.8491 8.08329 73.144 6.55967 60.955C4.65514 45.7188 3.38546 23.4993 3.38546 19.6903C3.38546 15.8812 4.44352 14.6116 7.61773 12.707C10.1571 11.1834 12.0616 6.8009 14.8126 4.47314L12.2732 10.1867C11.4268 18.4397 10.2418 36.2153 12.2732 41.294C14.3047 46.3727 14.8126 62.0322 14.8126 69.2271" stroke="black" stroke-width="3.80905"/>
<path d="M54.5964 57.146C54.5964 57.146 52.7526 42.0269 53.5476 34.2686C54.3425 26.5104 51.1186 17.7197 50.7874 13.9767M54.5964 57.146C50.1525 56.5112 48.4136 49.5809 44.439 44.4769M54.5964 57.146C57.7707 54.6066 62.2918 48.9684 63.4842 44.4768" stroke="black" stroke-width="3.80905" stroke-linecap="round"/>
</svg>
