<svg width="109" height="97" viewBox="0 0 109 97" fill="none" xmlns="http://www.w3.org/2000/svg">
<path d="M7.49013 64.5121C8.2585 61.7149 9.31792 49.2302 17.2691 5.73243C21.713 -0.615991 86.4669 2.55822 91.5457 3.8279C96.6244 5.09759 97.2592 62.8682 91.5457 67.3121C86.2808 71.407 16.8703 64.1821 7.49013 64.5121C7.21557 65.5115 6.97817 65.2741 6.4768 64.7728C6.32722 64.6232 6.69063 64.5402 7.49013 64.5121Z" fill="white"/>
<path d="M17.2691 5.73243C6.4768 64.7728 8.38133 66.6773 6.4768 64.7728C4.57227 62.8682 85.8321 71.756 91.5457 67.3121C97.2592 62.8682 96.6244 5.09759 91.5457 3.8279C86.4669 2.55822 21.713 -0.615991 17.2691 5.73243Z" stroke="black" stroke-width="3.80905"/>
<path d="M3.30223 88.8964C-0.760762 88.8964 4.99514 73.237 8.38097 65.4073C17.2688 67.3118 86.4666 69.8512 92.1801 69.2163C92.1801 62.0214 92.688 46.362 94.7195 41.2833C96.751 36.2045 95.566 18.4289 94.7195 10.176L92.1801 4.4624C94.9311 6.79016 101.068 11.8266 103.607 13.3502C106.782 15.2547 106.147 19.0638 106.147 22.8728C106.147 26.6819 108.051 46.362 106.147 61.5982C104.623 73.7872 101.703 87.8384 100.433 93.3403C101.703 97.7842 8.38097 88.8964 3.30223 88.8964Z" fill="#D9D9D9"/>
<path d="M100.433 93.3403C101.703 97.7842 8.38097 88.8964 3.30223 88.8964C-0.760762 88.8964 4.99514 73.237 8.38097 65.4073C17.2688 67.3118 86.4666 69.8512 92.1801 69.2163M100.433 93.3403C99.1634 88.8964 97.8937 68.5815 92.1801 69.2163M100.433 93.3403C101.703 87.8384 104.623 73.7872 106.147 61.5982C108.051 46.362 106.147 26.6819 106.147 22.8728C106.147 19.0638 106.782 15.2547 103.607 13.3502C101.068 11.8266 94.9311 6.79016 92.1801 4.4624L94.7195 10.176C95.566 18.4289 96.751 36.2045 94.7195 41.2833C92.688 46.362 92.1801 62.0214 92.1801 69.2163" stroke="black" stroke-width="3.80905"/>
<path d="M36.4845 32.9476C40.3976 33.7757 50.1635 35.6305 57.9217 36.4255C65.6799 37.2204 75.1055 36.7567 78.8485 36.4255M36.4845 32.9476C31.8908 29.4698 48.2239 27.4825 53.328 23.5078M36.4845 32.9476C38.356 36.9223 43.2219 45.1697 47.7135 46.3621" stroke="black" stroke-width="3.80905" stroke-linecap="round"/>
</svg>
