<svg width="287" height="316" viewBox="0 0 287 316" fill="none" xmlns="http://www.w3.org/2000/svg">
<g filter="url(#filter0_f_4_92)">
<path d="M182.354 311.859C163.093 312.834 146.851 308.475 141.138 306.173C108.764 298.863 38.1403 281.642 14.6352 271.245C-14.7462 258.249 24.429 246.064 39.9358 242.003C55.4426 237.941 97.0663 233.068 114.613 218.853C132.161 204.638 159.502 248.095 168.479 249.313C177.457 250.532 249.278 274.088 267.641 271.245C286.005 268.402 286.821 284.242 275.803 287.897C264.785 291.552 206.43 310.641 182.354 311.859Z" fill="url(#paint0_radial_4_92)" fill-opacity="0.4"/>
</g>
<path d="M21.7198 53.2141C18.5336 46.8498 10.0371 19.5363 24.375 19.5363C54.0244 13.5256 116.934 1.82238 131.378 3.09524C149.434 4.68631 146.778 6.54257 164.834 13.4372C182.889 20.3319 185.278 53.2141 187.934 86.0963C190.589 118.978 202.271 142.579 216.078 157.96C229.885 173.34 251.127 164.854 258.827 173.34C266.527 181.826 265.73 183.947 258.827 201.449C253.304 215.451 178.817 236.983 142.265 245.999C139.521 245.646 134.618 244.461 136.954 242.552C139.875 240.165 141.203 235.127 142.265 226.641C143.327 218.155 136.158 209.67 124.74 206.753C113.323 203.836 104.561 202.775 84.1164 183.947C63.6715 165.12 64.7336 115.796 64.7336 104.659C64.7336 97.9065 63.1721 74.9744 59.9308 56.131L35.2493 63.1711C34.6117 63.4358 33.9965 63.6081 33.4026 63.6979C28.0348 64.509 24.4057 58.5789 21.7198 53.2141Z" fill="#FFEDC5"/>
<path d="M24.375 19.5363C10.0371 19.5363 18.5336 46.8498 21.7198 53.2141C24.4057 58.5789 28.0348 64.509 33.4026 63.6979M24.375 19.5363C38.7129 19.5363 42.4302 21.923 51.4578 30.1435C52.7425 31.3134 53.9304 33.4338 55.023 36.2426M24.375 19.5363C54.0244 13.5256 116.934 1.82238 131.378 3.09524C149.434 4.68631 146.778 6.54257 164.834 13.4372C182.889 20.3319 185.278 53.2141 187.934 86.0963C190.589 118.978 202.271 142.579 216.078 157.96C229.885 173.34 251.127 164.854 258.827 173.34C266.527 181.826 265.73 183.947 258.827 201.449C253.304 215.451 178.817 236.983 142.265 245.999C139.521 245.646 134.618 244.461 136.954 242.552C139.875 240.165 141.203 235.127 142.265 226.641C143.327 218.155 136.158 209.67 124.74 206.753C113.323 203.836 104.561 202.775 84.1164 183.947C63.6715 165.12 64.7336 115.796 64.7336 104.659C64.7336 97.9065 63.1721 74.9744 59.9308 56.131M55.023 36.2426L36.5888 41.5462C39.244 54.8052 43.7577 58.2525 36.5888 62.4953C35.463 63.1617 34.4026 63.5468 33.4026 63.6979M55.023 36.2426C56.9535 41.2051 58.5866 48.3165 59.9308 56.131M33.4026 63.6979L59.9308 56.131" stroke="black" stroke-width="6"/>
<path d="M90.7264 74.1955C90.523 72.6234 90.2648 69.843 90.0478 68.0643C89.7765 65.8408 86.2026 60.2302 87.7496 58.9021C88.6924 58.0927 92.5453 56.3243 95.0255 57.0771C98.1258 58.018 97.8037 60.2193 96.9163 62.3314C95.8402 64.8928 92.8759 65.6363 91.798 65.9067C92.0011 67.0969 93.8213 68.2635 96.0456 69.1377C98.4668 70.0893 98.8548 71.2019 99.1469 71.2241" stroke="black" stroke-width="3.80905" stroke-linecap="round"/>
<path d="M76.502 78.5419C76.2987 76.9698 75.2845 73.2437 75.0675 71.465C74.7962 69.2416 71.6964 63.186 73.2434 61.8579C74.1862 61.0486 78.039 59.2802 80.5193 60.0329C83.6196 60.9739 84.1792 64.1135 83.2918 66.2257C82.2156 68.787 78.3697 68.5922 77.2918 68.8625" stroke="black" stroke-width="3.80905" stroke-linecap="round"/>
<path d="M103.222 59.606C102.369 55.6947 105.985 54.2125 107.9 53.9603L109.346 53.7C110.25 53.5373 112.013 54.5135 113.468 56.3764C114.923 58.2393 114.699 61.7401 114.735 63.4167C114.798 66.3616 114.215 67.7898 112.881 68.6765C111.548 69.5632 109.975 70.6777 106.643 69.7991C103.312 68.9205 104.289 64.4951 103.222 59.606Z" stroke="black" stroke-width="3.80905" stroke-linecap="round"/>
<path d="M160.18 58.2156C158.801 59.079 156.527 61.1148 153.123 60.3211C149.719 59.5273 150.78 55.2936 149.751 50.6448C148.929 46.9258 152.655 45.4641 154.621 45.1982C154.807 45.1647 156.872 45.6966 157.616 45.5629" stroke="black" stroke-width="3.80905" stroke-linecap="round"/>
<path d="M161.857 42.3811C161.413 42.584 160.832 43.053 162.056 43.3055C162.779 43.4546 165.071 43.1945 167.372 42.7585M172.942 40.9648C172.52 41.5657 169.94 42.2717 167.372 42.7585M167.372 42.7585C169.463 57.831 169.164 57.8954 170.061 58.6694" stroke="black" stroke-width="3.80905" stroke-linecap="round"/>
<path d="M119.203 52.4931C119.936 52.5866 121.827 52.0159 124.087 51.4055M128.997 49.3545C128.622 49.9858 126.611 50.7242 124.087 51.4055M124.087 51.4055C127.323 66.2745 126.179 68.5248 120.043 66.5851" stroke="black" stroke-width="3.80905" stroke-linecap="round"/>
<path d="M143.254 47.9578C140.804 48.487 135.611 49.4737 134.449 49.1871C133.723 49.008 134.411 51.9275 135.275 55.1029M146.788 61.21C145.687 61.3636 137.112 64.2438 137.157 62.5545C137.179 61.7098 136.139 58.2784 135.275 55.1029M135.275 55.1029C137.142 55.0761 141.13 54.8466 142.154 54.1426" stroke="black" stroke-width="3.80905" stroke-linecap="round"/>
<path d="M83.5 96.9993C88.8333 98.4993 101.8 100.599 111 96.9993C122.5 92.4993 134.5 90.4993 145 89.4993C153.4 88.6993 163.5 85.8326 167.5 84.4993" stroke="black" stroke-width="6" stroke-linecap="round"/>
<path d="M143 191.999C148.333 193.499 152.3 192.099 161.5 188.499C173 183.999 185 181.999 195.5 180.999C203.9 180.199 214 177.333 218 175.999" stroke="black" stroke-width="6" stroke-linecap="round"/>
<path d="M87 111.499C92.3333 112.999 105.3 115.099 114.5 111.499C126 106.999 138 104.999 148.5 103.999C156.9 103.199 167 100.333 171 98.9993" stroke="black" stroke-width="6" stroke-linecap="round"/>
<path d="M154.5 206.499C159.833 207.999 170.3 203.099 179.5 199.499C191 194.999 203 192.999 213.5 191.999C221.9 191.199 232 188.333 236 186.999" stroke="black" stroke-width="6" stroke-linecap="round"/>
<path d="M111.011 146.399C104.611 139.599 105.678 132.899 107.011 130.399C117.845 128.733 142.111 124.599 152.511 121.399C165.511 117.399 161.511 118.399 167.011 124.399C171.411 129.199 185.011 153.899 180.011 155.399C178.345 154.733 169.011 159.799 163.011 161.399C155.511 163.399 140.511 173.399 130.511 169.399C120.511 165.399 119.011 154.899 111.011 146.399Z" stroke="black" stroke-width="6" stroke-linecap="round"/>
<defs>
<filter id="filter0_f_4_92" x="0" y="211.999" width="287" height="104" filterUnits="userSpaceOnUse" color-interpolation-filters="sRGB">
<feFlood flood-opacity="0" result="BackgroundImageFix"/>
<feBlend mode="normal" in="SourceGraphic" in2="BackgroundImageFix" result="shape"/>
<feGaussianBlur stdDeviation="2" result="effect1_foregroundBlur_4_92"/>
</filter>
<radialGradient id="paint0_radial_4_92" cx="0" cy="0" r="1" gradientTransform="matrix(-5.30498 62.546 -181.774 -15.272 143.562 270.422)" gradientUnits="userSpaceOnUse">
<stop offset="0.427885" stop-color="#4B515A"/>
<stop offset="1" stop-color="#CBCBCB" stop-opacity="0"/>
</radialGradient>
</defs>
</svg>
