<svg width="115" height="101" viewBox="0 0 115 101" fill="none" xmlns="http://www.w3.org/2000/svg">
<path d="M105.868 68.9153C104.293 65.1765 104.631 27.0598 103.321 9.80727C99.274 3.19859 30.2217 2.1608 25.0747 3.11705C19.9277 4.07331 15.7559 61.6966 21.1866 66.4821C26.3231 71.0084 99.6464 67.7697 105.868 68.9153C105.985 69.1925 106.112 69.2807 106.251 69.1576C106.361 69.0609 106.224 68.9809 105.868 68.9153Z" fill="white"/>
<path d="M103.321 9.80727C104.728 28.3387 104.234 70.9419 106.251 69.1576C108.269 67.3733 26.6173 71.2676 21.1866 66.4821C15.7559 61.6966 19.9277 4.07331 25.0747 3.11705C30.2217 2.1608 99.274 3.19859 103.321 9.80727Z" stroke="black" stroke-width="3.80905"/>
<path d="M103.58 98.8685C107.635 99.1173 105.975 80.5704 105.291 70.9879C96.303 72.3445 26.1001 69.328 20.4361 68.3444C20.8768 61.163 20.2362 70.2211 18.5195 65.0275C16.8029 59.8339 20.1672 17.445 21.5175 9.25936L24.402 3.71203C21.5136 5.86693 22.0332 7.76451 19.4053 9.12975C16.1204 10.8363 15.5047 13.9596 15.2714 17.7615C15.0382 21.5634 11.7375 44.2582 12.7053 59.5824C13.4795 71.8418 9.79087 86.3482 10.7212 91.9176C9.18173 96.2754 98.5108 98.5574 103.58 98.8685Z" fill="#D9D9D9"/>
<path d="M10.7212 91.9176C9.18173 96.2754 98.5108 98.5574 103.58 98.8685C107.635 99.1173 105.975 80.5704 105.291 70.9879C96.303 72.3445 26.1001 69.328 20.4361 68.3444M10.7212 91.9176C12.2607 87.5599 14.7722 67.3608 20.4361 68.3444M10.7212 91.9176C9.79087 86.3482 13.4795 71.8418 12.7053 59.5824C11.7375 44.2582 15.0382 21.5634 15.2714 17.7615C15.5047 13.9596 16.1204 10.8363 19.4053 9.12975C22.0332 7.76451 21.5136 5.86693 24.402 3.71203L21.5175 9.25936C20.1672 17.445 16.8029 59.8339 18.5195 65.0275C20.2362 70.2211 20.8768 61.163 20.4361 68.3444" stroke="black" stroke-width="3.80905"/>
<path d="M72.7617 20.653C67.0329 20.7255 54.9572 20.5782 52.4848 19.4088C50.9396 18.678 51.1553 25.5286 51.6489 33.0323M74.6584 51.9352C72.1238 51.7797 51.6137 54.3374 52.4806 50.5744C52.9141 48.6928 52.1425 40.536 51.6489 33.0323M51.6489 33.0323C55.8408 33.8196 64.8778 35.1161 67.4901 34.0043" stroke="black" stroke-width="3.80905" stroke-linecap="round"/>
</svg>
