<svg width="106" height="98" viewBox="0 0 106 98" fill="none" xmlns="http://www.w3.org/2000/svg">
<path d="M100.717 64.1914C98.8809 60.5735 96.5175 22.5287 93.9885 5.41229C89.4838 -0.893079 20.5315 2.96382 15.4652 4.28231C10.3988 5.60081 10.3199 63.3749 16.076 67.7636C21.5202 71.9146 94.4298 63.4894 100.717 64.1914C100.853 64.4595 100.986 64.5385 101.116 64.4059C101.219 64.3017 101.077 64.2316 100.717 64.1914Z" fill="white"/>
<path d="M93.9885 5.41229C96.7049 23.7974 99.2304 66.3286 101.116 64.4059C103.003 62.4831 21.8321 72.1523 16.076 67.7636C10.3199 63.3749 10.3989 5.60081 15.4652 4.28231C20.5315 2.96382 89.4838 -0.893079 93.9885 5.41229Z" stroke="black" stroke-width="3.80905"/>
<path d="M95.8185 94.276C99.8813 94.2369 101.544 95.4907 99.3586 66.3076C90.4895 68.2976 21.1796 70.2533 15.4601 69.6734C15.3909 62.4789 17.2309 64.5584 15.1506 59.4994C13.0704 54.4405 11.5858 18.921 12.3528 10.6603L14.8371 4.92253C12.1086 7.27664 13.4082 10.3771 10.8836 11.9251C7.72788 13.8601 7.75231 16.3993 7.78896 20.2082C7.82561 24.0171 6.81253 50.6914 8.86357 65.9086C10.5044 78.0824 6.11713 88.3862 7.43969 93.8757C6.21282 98.3316 90.74 94.3249 95.8185 94.276Z" fill="#D9D9D9"/>
<path d="M7.43969 93.8757C6.21282 98.3316 90.74 94.3249 95.8185 94.276C99.8813 94.2369 101.544 95.4907 99.3586 66.3076C90.4895 68.2976 21.1796 70.2533 15.4601 69.6734M7.43969 93.8757C8.66656 89.4198 9.74072 69.0936 15.4601 69.6734M7.43969 93.8757C6.11712 88.3862 10.5044 78.0824 8.86357 65.9086C6.81253 50.6914 7.82561 24.0171 7.78896 20.2082C7.75231 16.3993 7.72788 13.8601 10.8836 11.9251C13.4082 10.3771 12.1086 7.27664 14.8371 4.92253L12.3528 10.6603C11.5858 18.921 13.0703 54.4405 15.1506 59.4994C17.2309 64.5584 15.3909 62.4789 15.4601 69.6734" stroke="black" stroke-width="3.80905"/>
<path d="M43.2067 53.7118C43.4649 50.0988 44.1488 43.7547 44.4703 39.6728C44.8722 34.5703 39.4154 20.3828 43.4829 18.1107C45.9615 16.7262 55.3929 14.5149 60.6057 17.3266C67.1217 20.8413 65.4011 25.6248 62.4549 29.9521C58.8822 35.1998 51.9062 35.5192 49.3695 35.6354C49.284 38.3932 52.8308 41.832 57.4153 44.7995C62.4055 48.0298 62.7694 50.6976 63.4133 50.88" stroke="black" stroke-width="3.80905" stroke-linecap="round"/>
</svg>
